#Comment line ignore any data following # character 
#Hierarchical Translation and Rotation (.htr) file 
[Header]	
#Header keywords are followed by a single value 
FileType HTR		#Single word string
DataType HTRS		#Translation followed by rotation and scale data
FileVersion 1		#integer
NumSegments 84		#integer
NumFrames 2		#integer
DataFrameRate 30		#integer, data frame rate in this file
EulerRotationOrder ZYX
CalibrationUnits mm
RotationUnits Degrees
GlobalAxisofGravity Y
BoneLengthAxis Y
ScaleFactor 1.00
[SegmentNames&Hierarchy]
#CHILD	PARENT
MASTER GLOBAL
root MASTER
chest root
L_mid_tent01 root
R_mid_tent01 root
spine01 root
Bip01_Neck chest
L_humerus chest
R_humerus chest
weapon_bone chest
Bip01_Head Bip01_Neck
eye_left_bone Bip01_Head
eye_right_bone Bip01_Head
L_forearm L_humerus
L_front_hand L_forearm
L_weapon_bone L_forearm
L_front_hand01_01 L_front_hand
L_front_hand02_01 L_front_hand
L_front_hand03_01 L_front_hand
L_front_hand01_02 L_front_hand01_01
L_front_hand02_02 L_front_hand02_01
L_front_hand03_02 L_front_hand03_01
R_forearm R_humerus
R_front_hand R_forearm
R_weapon_bone R_forearm
R_front_hand01_01 R_front_hand
R_front_hand02_01 R_front_hand
R_front_hand03_01 R_front_hand
R_front_hand01_02 R_front_hand01_01
R_front_hand02_02 R_front_hand02_01
R_front_hand03_02 R_front_hand03_01
null_rope01_connect L_mid_tent01
Rope1_Seg01 null_rope01_connect
Rope1_Seg02 Rope1_Seg01
Rope1_Seg03 Rope1_Seg02
Rope1_Seg04 Rope1_Seg03
Rope1_Seg05 Rope1_Seg04
Rope1_Seg06 Rope1_Seg05
Rope1_Seg07 Rope1_Seg06
Rope1_Seg09 Rope1_Seg07
L_mid_hand01 Rope1_Seg09
L_mid_hand02 Rope1_Seg09
L_mid_hand03 Rope1_Seg09
null_rope02_connect R_mid_tent01
Rope2_Seg01 null_rope02_connect
Rope2_Seg02 Rope2_Seg01
Rope2_Seg03 Rope2_Seg02
Rope2_Seg04 Rope2_Seg03
Rope2_Seg05 Rope2_Seg04
Rope2_Seg06 Rope2_Seg05
Rope2_Seg07 Rope2_Seg06
Rope2_Seg09 Rope2_Seg07
R_mid_hand01 Rope2_Seg09
R_mid_hand02 Rope2_Seg09
R_mid_hand03 Rope2_Seg09
spine02 spine01
spine03 spine02
pelvis spine03
null_rope03_connect pelvis
null_rope04_connect pelvis
Rope3_Seg01 null_rope03_connect
Rope3_Seg02 Rope3_Seg01
Rope3_Seg03 Rope3_Seg02
Rope3_Seg04 Rope3_Seg03
Rope3_Seg05 Rope3_Seg04
Rope3_Seg06 Rope3_Seg05
Rope3_Seg07 Rope3_Seg06
Rope3_Seg08 Rope3_Seg07
Rope3_Seg09 Rope3_Seg08
R_rear_hand01 Rope3_Seg09
R_rear_hand02 Rope3_Seg09
R_rear_hand03 Rope3_Seg09
Rope4_Seg01 null_rope04_connect
Rope4_Seg02 Rope4_Seg01
Rope4_Seg03 Rope4_Seg02
Rope4_Seg04 Rope4_Seg03
Rope4_Seg05 Rope4_Seg04
Rope4_Seg06 Rope4_Seg05
Rope4_Seg07 Rope4_Seg06
Rope4_Seg08 Rope4_Seg07
Rope4_Seg09 Rope4_Seg08
L_rear_hand01 Rope4_Seg09
L_rear_hand02 Rope4_Seg09
L_rear_hand03 Rope4_Seg09
[BasePosition]
#SegmentName Tx, Ty, Tz, Rx, Ry, Rz, BoneLength
MASTER 0.000000 0.000000 0.000000 -90.000000 0.000000 0.000000 10.000000 
root 0.000000 0.000000 0.000000 0.000000 0.000000 0.000000 10.000000 
chest 0.000000 0.000000 0.000000 0.000000 0.000000 0.000000 10.000000 
L_mid_tent01 0.000000 0.000000 0.000000 0.000000 0.000000 0.000000 10.000000 
R_mid_tent01 0.000000 0.000000 0.000000 0.000000 0.000000 0.000000 10.000000 
spine01 0.000000 0.000000 0.000000 0.000000 0.000000 0.000000 10.000000 
Bip01_Neck 0.000000 0.000000 0.000000 0.000000 0.000000 0.000000 10.000000 
L_humerus 0.000000 0.000000 0.000000 0.000000 0.000000 0.000000 10.000000 
R_humerus 0.000000 0.000000 0.000000 0.000000 0.000000 0.000000 10.000000 
weapon_bone 0.000000 0.000000 0.000000 0.000000 0.000000 0.000000 10.000000 
Bip01_Head 0.000000 0.000000 0.000000 0.000000 0.000000 0.000000 10.000000 
eye_left_bone 0.000000 0.000000 0.000000 0.000000 0.000000 0.000000 10.000000 
eye_right_bone 0.000000 0.000000 0.000000 0.000000 0.000000 0.000000 10.000000 
L_forearm 0.000000 0.000000 0.000000 0.000000 0.000000 0.000000 10.000000 
L_front_hand 0.000000 0.000000 0.000000 0.000000 0.000000 0.000000 10.000000 
L_weapon_bone 0.000000 0.000000 0.000000 0.000000 0.000000 0.000000 10.000000 
L_front_hand01_01 0.000000 0.000000 0.000000 0.000000 0.000000 0.000000 10.000000 
L_front_hand02_01 0.000000 0.000000 0.000000 0.000000 0.000000 0.000000 10.000000 
L_front_hand03_01 0.000000 0.000000 0.000000 0.000000 0.000000 0.000000 10.000000 
L_front_hand01_02 0.000000 0.000000 0.000000 0.000000 0.000000 0.000000 10.000000 
L_front_hand02_02 0.000000 0.000000 0.000000 0.000000 0.000000 0.000000 10.000000 
L_front_hand03_02 0.000000 0.000000 0.000000 0.000000 0.000000 0.000000 10.000000 
R_forearm 0.000000 0.000000 0.000000 0.000000 0.000000 0.000000 10.000000 
R_front_hand 0.000000 0.000000 0.000000 0.000000 0.000000 0.000000 10.000000 
R_weapon_bone 0.000000 0.000000 0.000000 0.000000 0.000000 0.000000 10.000000 
R_front_hand01_01 0.000000 0.000000 0.000000 0.000000 0.000000 0.000000 10.000000 
R_front_hand02_01 0.000000 0.000000 0.000000 0.000000 0.000000 0.000000 10.000000 
R_front_hand03_01 0.000000 0.000000 0.000000 0.000000 0.000000 0.000000 10.000000 
R_front_hand01_02 0.000000 0.000000 0.000000 0.000000 0.000000 0.000000 10.000000 
R_front_hand02_02 0.000000 0.000000 0.000000 0.000000 0.000000 0.000000 10.000000 
R_front_hand03_02 0.000000 0.000000 0.000000 0.000000 0.000000 0.000000 10.000000 
null_rope01_connect 0.000000 0.000000 0.000000 0.000000 0.000000 0.000000 10.000000 
Rope1_Seg01 0.000000 0.000000 0.000000 0.000000 0.000000 0.000000 10.000000 
Rope1_Seg02 0.000000 0.000000 0.000000 0.000000 0.000000 0.000000 10.000000 
Rope1_Seg03 0.000000 0.000000 0.000000 0.000000 0.000000 0.000000 10.000000 
Rope1_Seg04 0.000000 0.000000 0.000000 0.000000 0.000000 0.000000 10.000000 
Rope1_Seg05 0.000000 0.000000 0.000000 0.000000 0.000000 0.000000 10.000000 
Rope1_Seg06 0.000000 0.000000 0.000000 0.000000 0.000000 0.000000 10.000000 
Rope1_Seg07 0.000000 0.000000 0.000000 0.000000 0.000000 0.000000 10.000000 
Rope1_Seg09 0.000000 0.000000 0.000000 0.000000 0.000000 0.000000 10.000000 
L_mid_hand01 0.000000 0.000000 0.000000 0.000000 0.000000 0.000000 10.000000 
L_mid_hand02 0.000000 0.000000 0.000000 0.000000 0.000000 0.000000 10.000000 
L_mid_hand03 0.000000 0.000000 0.000000 0.000000 0.000000 0.000000 10.000000 
null_rope02_connect 0.000000 0.000000 0.000000 0.000000 0.000000 0.000000 10.000000 
Rope2_Seg01 0.000000 0.000000 0.000000 0.000000 0.000000 0.000000 10.000000 
Rope2_Seg02 0.000000 0.000000 0.000000 0.000000 0.000000 0.000000 10.000000 
Rope2_Seg03 0.000000 0.000000 0.000000 0.000000 0.000000 0.000000 10.000000 
Rope2_Seg04 0.000000 0.000000 0.000000 0.000000 0.000000 0.000000 10.000000 
Rope2_Seg05 0.000000 0.000000 0.000000 0.000000 0.000000 0.000000 10.000000 
Rope2_Seg06 0.000000 0.000000 0.000000 0.000000 0.000000 0.000000 10.000000 
Rope2_Seg07 0.000000 0.000000 0.000000 0.000000 0.000000 0.000000 10.000000 
Rope2_Seg09 0.000000 0.000000 0.000000 0.000000 0.000000 0.000000 10.000000 
R_mid_hand01 0.000000 0.000000 0.000000 0.000000 0.000000 0.000000 10.000000 
R_mid_hand02 0.000000 0.000000 0.000000 0.000000 0.000000 0.000000 10.000000 
R_mid_hand03 0.000000 0.000000 0.000000 0.000000 0.000000 0.000000 10.000000 
spine02 0.000000 0.000000 0.000000 0.000000 0.000000 0.000000 10.000000 
spine03 0.000000 0.000000 0.000000 0.000000 0.000000 0.000000 10.000000 
pelvis 0.000000 0.000000 0.000000 0.000000 0.000000 0.000000 10.000000 
null_rope03_connect 0.000000 0.000000 0.000000 0.000000 0.000000 0.000000 10.000000 
null_rope04_connect 0.000000 0.000000 0.000000 0.000000 0.000000 0.000000 10.000000 
Rope3_Seg01 0.000000 0.000000 0.000000 0.000000 0.000000 0.000000 10.000000 
Rope3_Seg02 0.000000 0.000000 0.000000 0.000000 0.000000 0.000000 10.000000 
Rope3_Seg03 0.000000 0.000000 0.000000 0.000000 0.000000 0.000000 10.000000 
Rope3_Seg04 0.000000 0.000000 0.000000 0.000000 0.000000 0.000000 10.000000 
Rope3_Seg05 0.000000 0.000000 0.000000 0.000000 0.000000 0.000000 10.000000 
Rope3_Seg06 0.000000 0.000000 0.000000 0.000000 0.000000 0.000000 10.000000 
Rope3_Seg07 0.000000 0.000000 0.000000 0.000000 0.000000 0.000000 10.000000 
Rope3_Seg08 0.000000 0.000000 0.000000 0.000000 0.000000 0.000000 10.000000 
Rope3_Seg09 0.000000 0.000000 0.000000 0.000000 0.000000 0.000000 10.000000 
R_rear_hand01 0.000000 0.000000 0.000000 0.000000 0.000000 0.000000 10.000000 
R_rear_hand02 0.000000 0.000000 0.000000 0.000000 0.000000 0.000000 10.000000 
R_rear_hand03 0.000000 0.000000 0.000000 0.000000 0.000000 0.000000 10.000000 
Rope4_Seg01 0.000000 0.000000 0.000000 0.000000 0.000000 0.000000 10.000000 
Rope4_Seg02 0.000000 0.000000 0.000000 0.000000 0.000000 0.000000 10.000000 
Rope4_Seg03 0.000000 0.000000 0.000000 0.000000 0.000000 0.000000 10.000000 
Rope4_Seg04 0.000000 0.000000 0.000000 0.000000 0.000000 0.000000 10.000000 
Rope4_Seg05 0.000000 0.000000 0.000000 0.000000 0.000000 0.000000 10.000000 
Rope4_Seg06 0.000000 0.000000 0.000000 0.000000 0.000000 0.000000 10.000000 
Rope4_Seg07 0.000000 0.000000 0.000000 0.000000 0.000000 0.000000 10.000000 
Rope4_Seg08 0.000000 0.000000 0.000000 0.000000 0.000000 0.000000 10.000000 
Rope4_Seg09 0.000000 0.000000 0.000000 0.000000 0.000000 0.000000 10.000000 
L_rear_hand01 0.000000 0.000000 0.000000 0.000000 0.000000 0.000000 10.000000 
L_rear_hand02 0.000000 0.000000 0.000000 0.000000 0.000000 0.000000 10.000000 
L_rear_hand03 0.000000 0.000000 0.000000 0.000000 0.000000 0.000000 10.000000 
#Beginning of Data. Separated by tabs
#Fr	Tx	Ty	Tz	Rx	Ry	Rz	SF
[MASTER]
4 0.000143 -1305.794800 -152.465866 0.001660 0.001660 0.001660 1314.665771
5 0.000190 -1752.471191 -208.332443 0.001660 0.001660 0.001660 1764.810913
[root]
4 -22.045288 -11.346147 1462.398193 -85.483315 -12.353670 -97.026062 1462.608276
5 -25.418003 -20.243698 1470.964355 -82.480797 -13.210916 -100.660851 1471.323242
[chest]
4 -84.512650 -34.090519 0.000000 11.256477 2.747089 156.948257 91.129311
5 -84.512650 -34.090519 0.000000 16.536324 4.389707 153.301331 91.129311
[L_mid_tent01]
4 27.299126 22.179106 -249.918732 -0.948318 12.429466 65.449951 252.381714
5 27.299128 22.179106 -249.918732 4.641298 8.786110 82.425583 252.381714
[R_mid_tent01]
4 23.228794 24.509907 226.238495 168.226822 -9.301957 68.445351 228.744751
5 23.228794 24.509907 226.238495 164.226883 -4.936828 76.419685 228.744751
[spine01]
4 -0.361383 -0.195265 0.000000 0.002050 0.001143 31.695623 0.410763
5 -0.361383 -0.195265 0.000000 0.002062 0.001122 32.879829 0.410763
[Bip01_Neck]
4 165.484543 71.581718 0.000119 176.643677 -1.657967 43.431911 180.302734
5 165.484543 71.581718 0.000119 176.643677 -1.657967 43.431915 180.302734
[L_humerus]
4 -13.983130 -135.272980 -120.471481 -99.638725 84.789543 2.853690 181.680161
5 -13.983130 -135.272980 -120.471481 -159.485779 77.480911 -51.655449 181.680161
[R_humerus]
4 -13.983309 -135.273102 125.287651 118.969017 -80.300507 -22.515842 184.909012
5 -13.983309 -135.273102 125.287651 154.581421 -72.635117 -57.777725 184.909012
[weapon_bone]
4 235.964890 -300.705902 0.000000 0.000000 -89.951546 -128.212341 382.234833
5 235.964890 -300.705902 0.000000 0.000000 -89.951546 -128.212341 382.234833
[Bip01_Head]
4 213.432800 185.747299 11.366773 4.987274 10.061258 -43.762241 283.169250
5 213.495087 185.573502 13.612106 11.712641 8.455770 -43.796345 283.201294
[eye_left_bone]
4 -24.626970 125.451866 -64.772606 0.000000 -90.000000 -99.840431 143.318359
5 -24.626970 125.451866 -64.772606 0.000000 -90.000000 -99.840431 143.318359
[eye_right_bone]
4 -24.626970 125.451866 64.327362 0.000000 -89.965736 80.156380 143.117676
5 -24.626970 125.451866 64.327362 0.000000 -89.965736 80.156380 143.117676
[L_forearm]
4 322.776093 0.000000 -0.000119 0.000364 -0.002319 -107.849060 322.776093
5 322.776093 0.000000 -0.000119 0.000341 -0.002322 -106.712891 322.776093
[L_front_hand]
4 241.149185 -0.042021 -3.300071 19.906128 -1.837386 -27.424747 241.171753
5 241.149185 -0.042021 -3.300071 86.097504 -1.836031 -27.423235 241.171753
[L_weapon_bone]
4 156.183838 0.000000 0.000000 0.000014 0.000007 0.000001 156.183838
5 156.183838 0.000000 0.000000 0.000014 0.000007 0.000001 156.183838
[L_front_hand01_01]
4 86.095154 20.947098 -0.655860 -0.366594 -0.477154 75.385574 88.609184
5 86.095154 20.947098 -0.655860 -0.366594 -0.477154 75.385574 88.609184
[L_front_hand02_01]
4 86.935165 -11.437475 24.513514 154.399796 -59.883835 -61.369587 91.046425
5 86.935165 -11.437475 24.513514 154.399811 -59.883842 -61.369587 91.046425
[L_front_hand03_01]
4 86.637497 -14.123976 -20.424902 -153.913849 58.118122 -62.702866 90.126129
5 86.637497 -14.123976 -20.424902 -153.913879 58.118130 -62.702892 90.126129
[L_front_hand01_02]
4 71.020905 -0.000179 0.000030 0.000098 0.002345 -85.209702 71.020905
5 71.020905 -0.000179 0.000030 0.000370 0.002318 -71.881897 71.020905
[L_front_hand02_02]
4 71.020927 -0.000119 0.000060 0.000098 0.002345 -85.209702 71.020927
5 71.020927 -0.000119 0.000060 0.000370 0.002318 -71.881897 71.020927
[L_front_hand03_02]
4 71.020905 -0.000060 0.000060 0.000098 0.002345 -85.209702 71.020905
5 71.020905 -0.000060 0.000060 0.000370 0.002318 -71.881897 71.020905
[R_forearm]
4 322.776428 -0.000060 0.000030 0.204135 0.054885 -106.169266 322.776428
5 322.776428 -0.000060 0.000030 0.204747 0.052558 -104.864655 322.776428
[R_front_hand]
4 238.847015 -0.006795 2.210259 152.491440 -10.645563 -26.316153 238.857239
5 238.847015 -0.006795 2.210259 84.200378 -10.647266 -26.314434 238.857239
[R_weapon_bone]
4 155.664093 0.002503 -0.000030 0.003487 0.001180 -90.988930 155.664078
5 155.664093 0.002503 -0.000030 0.003487 0.001180 -90.988930 155.664078
[R_front_hand01_01]
4 87.624611 14.231146 22.918642 -154.633514 -59.950634 61.746063 91.683487
5 87.624611 14.231146 22.918642 -154.633499 -59.950619 61.746044 91.683487
[R_front_hand02_01]
4 89.356956 14.367283 -19.491137 154.602661 58.302849 63.744389 92.579636
5 89.356956 14.367283 -19.491137 154.602661 58.302849 63.744389 92.579636
[R_front_hand03_01]
4 87.286232 -22.307278 -0.143439 0.162155 -0.423168 -75.767921 90.091743
5 87.286232 -22.307278 -0.143439 0.162155 -0.423168 -75.767921 90.091743
[R_front_hand01_02]
4 71.020905 0.000060 0.000119 0.002345 0.000098 85.214203 71.020905
5 71.020905 0.000060 0.000119 0.002318 0.000369 71.886009 71.020905
[R_front_hand02_02]
4 71.020844 -0.000030 -0.000119 0.002345 0.000098 85.214203 71.020836
5 71.020844 -0.000030 -0.000119 0.002318 0.000369 71.886009 71.020836
[R_front_hand03_02]
4 71.020905 0.000000 0.000030 0.002345 0.000098 85.214203 71.020905
5 71.020905 0.000000 0.000030 0.002318 0.000369 71.886009 71.020905
[null_rope01_connect]
4 328.732483 0.000000 -0.000238 -115.825500 -75.871567 152.083221 328.732483
5 328.732483 0.000000 -0.000238 -87.344826 -73.581284 108.176491 328.732483
[Rope1_Seg01]
4 -0.000004 -0.000034 0.000153 110.114723 29.142199 135.562500 0.000156
5 -0.000005 -0.000033 0.000153 111.973907 39.765984 137.906281 0.000156
[Rope1_Seg02]
4 139.999863 -0.000179 0.000000 -0.464154 22.879219 7.558105 139.999863
5 139.999863 -0.000179 0.000000 -0.219545 8.878440 13.688641 139.999863
[Rope1_Seg03]
4 139.999924 0.000060 -0.000060 -2.791854 17.161184 8.464780 139.999924
5 139.999924 0.000060 -0.000060 0.944307 7.994771 13.709355 139.999924
[Rope1_Seg04]
4 139.999924 -0.000060 -0.000119 0.768467 3.193130 -7.884671 139.999924
5 139.999924 -0.000060 -0.000119 0.490333 3.420595 5.248087 139.999924
[Rope1_Seg05]
4 139.999832 0.000119 -0.000060 3.488707 0.215431 -10.416705 139.999832
5 139.999832 0.000119 -0.000060 -0.099163 -2.833808 -6.936095 139.999832
[Rope1_Seg06]
4 139.999954 0.000119 -0.000060 2.041319 0.987323 -5.835188 139.999954
5 139.999954 0.000119 -0.000060 0.357589 -3.176927 -7.638153 139.999954
[Rope1_Seg07]
4 139.999985 0.000060 0.000000 1.511475 0.463702 -3.514445 139.999985
5 139.999985 0.000060 0.000000 0.336639 -1.584640 -4.178493 139.999985
[Rope1_Seg09]
4 121.602913 0.000119 -0.000089 -89.793175 -1.359789 0.847147 121.602913
5 121.602913 0.000119 -0.000089 -89.793175 -1.359789 0.847147 121.602913
[L_mid_hand01]
4 103.859421 1.038730 8.195221 119.391953 -59.659550 -26.459229 104.187431
5 103.859421 1.038730 8.195221 115.408714 -54.701878 -21.722239 104.187431
[L_mid_hand02]
4 105.572853 -4.139662 -10.864139 -160.502609 40.861904 -60.979630 106.211075
5 105.572853 -4.139662 -10.864139 -156.174301 38.799171 -54.227280 106.211075
[L_mid_hand03]
4 104.641464 17.579376 -3.913581 -8.971709 16.553080 64.913109 106.179977
5 104.641464 17.579376 -3.913581 -10.556284 15.605943 59.190193 106.179977
[null_rope02_connect]
4 328.732849 0.000179 -0.000119 -120.616676 79.641411 23.615763 328.732849
5 328.732849 0.000179 -0.000119 -119.854156 81.524017 31.183933 328.732849
[Rope2_Seg01]
4 0.000095 0.000168 0.000000 -46.991001 3.208106 46.831551 0.000193
5 0.000095 0.000185 0.000000 -46.388847 6.371397 53.136459 0.000208
[Rope2_Seg02]
4 139.999741 -0.000060 -0.000119 -1.306599 17.662436 -7.313473 139.999756
5 139.999741 -0.000060 -0.000119 -0.622459 11.996186 -6.407525 139.999756
[Rope2_Seg03]
4 140.000107 0.000030 0.000000 0.649463 7.850922 -5.890420 140.000107
5 140.000107 0.000030 0.000000 0.013236 7.193499 -4.468449 140.000107
[Rope2_Seg04]
4 139.999802 0.000000 -0.000060 -0.342983 2.606580 -0.580007 139.999802
5 139.999802 0.000000 -0.000060 0.788826 5.754510 -5.343542 139.999802
[Rope2_Seg05]
4 139.999985 -0.000060 0.000119 -2.841754 0.814035 4.603521 139.999985
5 139.999985 -0.000060 0.000119 -0.284314 1.746911 -0.264829 139.999985
[Rope2_Seg06]
4 139.999893 -0.000030 -0.000119 -7.737583 -0.882987 17.032101 139.999893
5 139.999893 -0.000030 -0.000119 -1.694227 -0.407961 3.757628 139.999893
[Rope2_Seg07]
4 139.999893 0.000060 -0.000060 -6.804065 -2.808360 26.019274 139.999893
5 139.999893 0.000060 -0.000060 -3.455521 -3.314755 10.093548 139.999893
[Rope2_Seg09]
4 121.338966 0.000089 -0.000060 33.793236 -1.359788 -0.847141 121.338966
5 121.338966 0.000089 -0.000060 33.793236 -1.359788 -0.847141 121.338966
[R_mid_hand01]
4 104.680779 11.144459 -10.335981 -20.399712 43.830379 64.493820 105.778534
5 104.680779 11.144459 -10.335981 -22.984863 42.734222 60.718647 105.778534
[R_mid_hand02]
4 104.070427 2.443552 8.231699 55.242668 -64.206009 32.532043 104.424065
5 104.070427 2.443552 8.231699 58.419525 -61.729698 28.969110 104.424065
[R_mid_hand03]
4 106.028137 -11.221827 -5.996406 -175.861618 15.275426 -71.940247 106.788818
5 106.028137 -11.221827 -5.996406 -175.069138 15.041782 -68.893333 106.788818
[spine02]
4 129.756927 0.001550 0.000119 0.459413 -4.033847 -14.338944 129.756927
5 129.756927 0.001550 0.000119 0.480671 -4.031268 -14.663939 129.756927
[spine03]
4 78.613983 0.081515 -4.899012 1.953945 3.802254 17.360031 78.766518
5 78.613953 0.081526 -4.899014 1.970549 3.797235 17.565788 78.766495
[pelvis]
4 169.435242 0.051022 0.000000 -0.068187 -0.178569 15.888731 169.435257
5 169.435242 0.051022 0.000000 -0.068825 -0.178324 16.298317 169.435257
[null_rope03_connect]
4 -1.257226 -2.466202 137.391083 -47.358681 -81.657906 99.446350 137.418976
5 -1.257226 -2.466202 137.391083 -46.194523 -77.568619 98.107887 137.418976
[null_rope04_connect]
4 -1.259640 -2.480268 -137.844437 -47.358681 -81.657906 99.446350 137.872513
5 -1.259640 -2.480268 -137.844437 -46.194523 -77.568619 98.107887 137.872513
[Rope3_Seg01]
4 -0.000019 0.000031 -0.000136 78.435951 -18.512869 14.671389 0.000141
5 -0.000019 0.000054 -0.000131 13.139180 -10.298224 30.831734 0.000143
[Rope3_Seg02]
4 139.999924 -0.000119 0.000060 55.757538 -4.818268 4.527476 139.999924
5 139.999924 -0.000119 0.000060 32.420521 -10.328798 -2.946496 139.999924
[Rope3_Seg03]
4 139.999924 -0.000119 0.000119 19.745956 -2.166369 2.416497 139.999924
5 139.999924 -0.000119 0.000119 26.096260 -5.736198 0.389317 139.999924
[Rope3_Seg04]
4 139.999924 0.000119 0.000000 -2.921359 1.021000 0.589115 139.999924
5 139.999924 0.000119 0.000000 26.138609 -5.012458 0.224759 139.999924
[Rope3_Seg05]
4 139.999924 -0.000238 0.000060 -18.628036 4.369024 -0.850614 139.999924
5 139.999924 -0.000238 0.000060 2.137913 0.810601 1.985662 139.999924
[Rope3_Seg06]
4 139.999893 -0.000119 -0.000060 -24.067810 11.555302 0.782967 139.999893
5 139.999893 -0.000119 -0.000060 -9.385832 5.010669 2.292402 139.999893
[Rope3_Seg07]
4 139.999771 0.000060 -0.000119 -8.271163 11.851062 6.904467 139.999771
5 139.999771 0.000060 -0.000119 -9.984038 9.675265 5.041045 139.999771
[Rope3_Seg08]
4 139.999985 -0.000060 0.000000 -2.637362 10.739776 8.856177 139.999985
5 139.999985 -0.000060 0.000000 -2.354255 5.930954 5.047792 139.999985
[Rope3_Seg09]
4 90.185997 -0.000179 -0.000060 89.793228 -1.359877 -0.847183 90.185997
5 90.185997 -0.000179 -0.000060 89.793228 -1.359877 -0.847183 90.185997
[R_rear_hand01]
4 103.366196 -6.073594 -10.757982 -175.114853 24.208797 -67.632149 104.101845
5 103.366196 -6.073594 -10.757982 -173.471771 23.840061 -63.594990 104.101845
[R_rear_hand02]
4 100.509819 12.039542 -7.992327 -16.923939 35.395069 65.303368 101.543350
5 100.509819 12.039542 -7.992327 -19.370911 34.238876 61.013874 101.543350
[R_rear_hand03]
4 101.539970 5.215704 5.435467 75.730560 -66.314209 16.974052 101.819031
5 101.539970 5.215704 5.435467 77.523735 -62.710106 14.990743 101.819031
[Rope4_Seg01]
4 0.000010 0.000038 -0.000114 136.853058 -66.085930 -177.651932 0.000121
5 0.000010 0.000038 -0.000114 -106.547523 -63.090614 76.757347 0.000121
[Rope4_Seg02]
4 139.999985 0.000060 0.000119 -11.539561 -36.236290 -24.538044 139.999985
5 139.999985 0.000060 0.000119 17.040667 -46.560696 -18.927929 139.999985
[Rope4_Seg03]
4 139.999924 0.000000 -0.000238 -32.096458 -3.215527 -4.289886 139.999924
5 139.999924 0.000000 -0.000238 45.072945 -22.319309 -4.444377 139.999924
[Rope4_Seg04]
4 139.999985 0.000000 0.000119 28.538847 -1.513905 1.744967 139.999985
5 139.999985 0.000000 0.000119 42.896545 -4.354239 3.103678 139.999985
[Rope4_Seg05]
4 139.999802 -0.000060 -0.000119 40.470604 0.676446 8.650214 139.999802
5 139.999802 -0.000060 -0.000119 -21.093794 1.258184 -2.385958 139.999802
[Rope4_Seg06]
4 139.999924 0.000000 0.000060 11.923237 10.120891 10.231058 139.999924
5 139.999924 0.000000 0.000060 -41.348381 6.525504 -7.117164 139.999924
[Rope4_Seg07]
4 139.999802 0.000000 0.000000 4.189771 9.780729 7.253755 139.999802
5 139.999802 0.000000 0.000000 -16.842731 16.572504 -2.069668 139.999802
[Rope4_Seg08]
4 139.999924 0.000000 0.000119 0.443008 8.683434 5.612490 139.999924
5 139.999924 0.000000 0.000119 -4.050587 8.280306 1.578986 139.999924
[Rope4_Seg09]
4 90.185791 0.000060 0.000060 -135.617828 2.228885 0.850567 90.185791
5 90.185791 0.000060 0.000060 -135.617828 2.228885 0.850567 90.185791
[L_rear_hand01]
4 101.696655 -8.392275 -7.654577 -23.837845 -31.499460 127.199913 102.329041
5 101.696655 -8.392275 -7.654577 -28.015865 -27.942135 135.607544 102.329041
[L_rear_hand02]
4 102.726799 -1.568258 5.773216 79.944244 55.427822 167.828537 102.900848
5 102.726799 -1.568258 5.773216 81.577332 47.415253 169.913025 102.900848
[L_rear_hand03]
4 104.552910 9.721220 -10.420293 -170.300720 -22.790039 -124.406273 105.519653
5 104.552910 9.721220 -10.420293 -167.078079 -21.194328 -132.993347 105.519653
